<svg width="26" height="32" viewBox="0 0 26 32" fill="none" xmlns="http://www.w3.org/2000/svg">
<path d="M1.06992 7.47901C0.719554 7.85872 0.44812 8.30426 0.271391 8.78975C0.0946619 9.27524 0.0161589 9.79101 0.0404421 10.3071C0.0647252 10.8232 0.191311 11.3293 0.412845 11.7961C0.63438 12.2628 0.946448 12.6809 1.33092 13.026C1.96932 13.5809 2.77433 13.9074 3.61888 13.9539C4.46343 14.0004 5.29943 13.7644 5.99492 13.283L5.99492 16C5.99558 16.1313 6.0221 16.2612 6.07296 16.3823C6.12382 16.5034 6.19803 16.6133 6.29135 16.7057C6.38468 16.7981 6.49528 16.8712 6.61686 16.9208C6.73844 16.9705 6.8686 16.9957 6.99992 16.995C7.13125 16.9944 7.26115 16.9678 7.38223 16.917C7.5033 16.8661 7.61317 16.7919 7.70557 16.6986C7.79796 16.6053 7.87107 16.4947 7.92072 16.3731C7.97037 16.2515 7.99558 16.1213 7.99492 15.99L7.99492 12.646C7.99532 12.3113 7.8969 11.9839 7.712 11.7049C7.5271 11.4259 7.26395 11.2077 6.95554 11.0776C6.64714 10.9475 6.3072 10.9114 5.97834 10.9738C5.64948 11.0361 5.34634 11.1941 5.10692 11.428C4.77996 11.7495 4.34383 11.936 3.88549 11.9503C3.42715 11.9646 2.98026 11.8056 2.63392 11.505C2.44878 11.3417 2.29834 11.1428 2.19153 10.9202C2.08473 10.6977 2.02373 10.4559 2.01216 10.2093C2.0006 9.96265 2.0387 9.71622 2.1242 9.48462C2.20971 9.25301 2.34088 9.04095 2.50992 8.86101L8.53692 2.60401C8.72803 2.41009 8.95579 2.25609 9.20695 2.15097C9.4581 2.04586 9.72766 1.99173 9.99992 1.99173C10.2722 1.99173 10.5417 2.04586 10.7929 2.15097C11.0441 2.25609 11.2718 2.41009 11.4629 2.60401L17.4899 8.86601C17.6565 9.04723 17.7854 9.25964 17.8694 9.49099C17.9534 9.72233 17.9907 9.96802 17.9791 10.2139C17.9676 10.4597 17.9075 10.7008 17.8022 10.9233C17.697 11.1458 17.5487 11.3452 17.3659 11.51C17.0199 11.8104 16.5734 11.9694 16.1154 11.9551C15.6573 11.9408 15.2216 11.7544 14.8949 11.433C14.6556 11.1988 14.3523 11.0404 14.0233 10.9779C13.6943 10.9154 13.3541 10.9514 13.0455 11.0816C12.7369 11.2117 12.4736 11.43 12.2886 11.7093C12.1037 11.9885 12.0053 12.3161 12.0059 12.651L11.9939 18.717C11.2985 18.2355 10.4625 17.9993 9.61786 18.0459C8.77327 18.0924 7.96824 18.419 7.32992 18.974C6.94295 19.3176 6.62862 19.7351 6.40545 20.2019C6.18228 20.6688 6.05479 21.1756 6.03046 21.6925C6.00614 22.2094 6.08549 22.7259 6.26384 23.2117C6.44218 23.6975 6.71592 24.1426 7.06893 24.521L13.0999 30.779C13.4763 31.1687 13.9274 31.4787 14.4261 31.6903C14.9249 31.902 15.4611 32.0111 16.0029 32.0111C16.5447 32.0111 17.081 31.902 17.5797 31.6903C18.0785 31.4787 18.5295 31.1687 18.9059 30.779L24.9299 24.521C25.2792 24.1407 25.5496 23.6951 25.7257 23.2097C25.9017 22.7243 25.9799 22.2089 25.9556 21.6931C25.9313 21.1774 25.8051 20.6715 25.5843 20.2048C25.3635 19.7381 25.0523 19.3198 24.6689 18.974C24.0305 18.4191 23.2255 18.0927 22.381 18.0461C21.5364 17.9996 20.7004 18.2356 20.0049 18.717L20.0049 16C20.0049 15.7348 19.8996 15.4804 19.712 15.2929C19.5245 15.1054 19.2701 15 19.0049 15C18.7397 15 18.4854 15.1054 18.2978 15.2929C18.1103 15.4804 18.0049 15.7348 18.0049 16L18.0049 19.349C18.0045 19.6837 18.103 20.0111 18.2879 20.2901C18.4728 20.5691 18.7359 20.7873 19.0443 20.9174C19.3527 21.0475 19.6927 21.0836 20.0215 21.0213C20.3504 20.9589 20.6535 20.8009 20.8929 20.567C21.2199 20.2455 21.656 20.059 22.1144 20.0447C22.5727 20.0305 23.0196 20.1895 23.3659 20.49C23.5486 20.6549 23.6967 20.8544 23.8019 21.0768C23.9071 21.2993 23.9672 21.5404 23.9787 21.7862C23.9902 22.032 23.953 22.2776 23.8691 22.509C23.7852 22.7403 23.6563 22.9527 23.4899 23.134L17.4629 29.391C17.2717 29.5848 17.044 29.7387 16.7928 29.8437C16.5417 29.9488 16.2722 30.0029 15.9999 30.0029C15.7277 30.0029 15.4582 29.9488 15.207 29.8437C14.9559 29.7387 14.7281 29.5848 14.5369 29.391L8.50992 23.134C8.34364 22.9527 8.21489 22.7402 8.13107 22.5089C8.04726 22.2776 8.01004 22.032 8.02157 21.7862C8.03309 21.5404 8.09313 21.2994 8.19823 21.0769C8.30333 20.8545 8.4514 20.655 8.63392 20.49C8.97994 20.1896 9.42649 20.0307 9.88449 20.0449C10.3425 20.0592 10.7783 20.2456 11.1049 20.567C11.3443 20.8013 11.6475 20.9596 11.9765 21.0221C12.3056 21.0846 12.6457 21.0486 12.9544 20.9185C13.263 20.7884 13.5263 20.57 13.7112 20.2908C13.8962 20.0116 13.9945 19.6839 13.9939 19.349L14.0059 13.283C14.7014 13.7645 15.5374 14.0007 16.382 13.9542C17.2266 13.9076 18.0316 13.581 18.6699 13.026C19.0588 12.6837 19.3749 12.2666 19.5993 11.7997C19.8238 11.3327 19.952 10.8254 19.9763 10.3078C20.0007 9.79031 19.9207 9.27317 19.7411 8.78719C19.5615 8.30122 19.286 7.85633 18.9309 7.47901L12.8999 1.22101C12.5235 0.831302 12.0725 0.521369 11.5737 0.30969C11.075 0.0980105 10.5387 -0.0110783 9.99692 -0.0110783C9.45511 -0.0110783 8.91885 0.0980106 8.4201 0.30969C7.92135 0.52137 7.47033 0.831302 7.09392 1.22101L1.06992 7.47901Z" fill="white"/>
</svg>
