<svg width="24" height="24" viewBox="0 0 24 24" fill="none" xmlns="http://www.w3.org/2000/svg">
<path d="M12.0358 0.130072V0.141895C12.0476 0.201008 12.0476 0.271944 12.0476 0.34288V8.86702C12.0358 8.91431 12.0003 8.92613 11.9649 8.94978C11.7166 9.068 11.4801 9.17441 11.2319 9.28081C10.889 9.43451 10.5343 9.60002 10.1915 9.75372L8.95008 10.3212C8.60722 10.4749 8.26436 10.6286 7.93333 10.7823C7.53136 10.9715 7.11757 11.1488 6.7156 11.338C6.37274 11.4916 6.02988 11.6572 5.6752 11.8109C5.39146 11.9409 5.10771 12.0591 4.83579 12.1892C4.81215 12.201 4.7885 12.2128 4.76486 12.2128C4.75303 12.2128 4.75303 12.2128 4.74121 12.201L5.06042 11.669C5.6752 10.6522 6.27816 9.64731 6.89294 8.63057C7.54318 7.54288 8.20525 6.4552 8.8555 5.36751C9.45845 4.36259 10.0732 3.35766 10.6762 2.35273C11.1136 1.61973 11.5629 0.886723 12.0003 0.153718C12.0121 0.130072 12.024 0.11825 12.024 0.0946045H12.0358C12.024 0.106427 12.0358 0.11825 12.0358 0.130072Z" fill="#8A92B2"/>
<path d="M19.2945 12.2011L19.3063 12.2129L17.5684 13.2415L12.1063 16.469C12.0827 16.4809 12.059 16.4927 12.0472 16.5045C12.0117 16.5045 12.0117 16.469 12.0117 16.4572V16.3508V9.04441C12.0117 9.00895 12.0117 8.96166 12.0235 8.92619C12.0354 8.8789 12.0708 8.89072 12.1063 8.90254C12.26 8.97348 12.4255 9.04441 12.5792 9.11535C13.0403 9.32816 13.5014 9.54097 13.9625 9.74195C14.3644 9.91929 14.7546 10.1085 15.1565 10.2858C15.5585 10.4631 15.9605 10.6523 16.3625 10.8296C16.7053 10.9833 17.06 11.1488 17.4029 11.3025C17.7457 11.4562 18.1004 11.6218 18.4432 11.7754C18.7152 11.8937 18.9871 12.0237 19.259 12.142C19.259 12.1774 19.2708 12.1892 19.2945 12.2011Z" fill="#454A75"/>
<path d="M12.0353 23.8464C12.0353 23.8582 12.0235 23.87 12.0235 23.8818H12.0117C12.0117 23.8582 11.988 23.8464 11.9762 23.8227C11.2432 22.7941 10.5102 21.7537 9.77718 20.7252C9.03235 19.673 8.2757 18.6089 7.53087 17.5567C6.80969 16.5399 6.07668 15.5114 5.3555 14.4946C5.16634 14.2227 4.97718 13.9626 4.78801 13.6907C4.77619 13.667 4.76437 13.6552 4.74072 13.6198C4.77619 13.6198 4.79984 13.6434 4.81166 13.6552C5.84023 14.2582 6.85698 14.8611 7.88555 15.4641C9.06782 16.1616 10.2383 16.8592 11.4205 17.5567L12.0235 17.9114C12.0471 17.935 12.0471 17.9587 12.0471 17.9823V23.6808C12.0471 23.7399 12.0471 23.7991 12.0353 23.8464Z" fill="#8A92B2"/>
<path d="M4.729 12.2246V12.2128C5.10733 12.0473 5.47383 11.8699 5.85216 11.7044C6.33689 11.4798 6.82161 11.267 7.30634 11.0423C7.67285 10.8768 8.05117 10.6995 8.41767 10.534C8.96152 10.2857 9.49354 10.0492 10.0374 9.80097C10.4039 9.63545 10.7704 9.46994 11.1487 9.2926C11.4088 9.17437 11.6807 9.05614 11.9408 8.93792C11.9645 8.92609 11.9999 8.91427 12.0118 8.89062C12.0236 8.89062 12.0236 8.90245 12.0118 8.91427V16.4217C12.0118 16.4571 11.9999 16.4926 12.0236 16.5162C11.9999 16.5517 11.9763 16.5162 11.9645 16.5044C11.8581 16.4453 11.7517 16.3862 11.6453 16.3153C9.36349 14.9675 7.06989 13.6079 4.78812 12.2601C4.77629 12.2483 4.75265 12.2364 4.729 12.2246Z" fill="#62688F"/>
<path d="M19.271 13.6198H19.2828C19.2828 13.6434 19.2592 13.667 19.2473 13.6907C17.072 16.7528 14.8966 19.8266 12.7212 22.8887C12.4966 23.2079 12.2601 23.5271 12.0355 23.8464C12.0237 23.8345 12.0237 23.8227 12.0237 23.8109V23.74V18.006V17.8996C12.5202 17.604 13.005 17.3202 13.5015 17.0247C15.4168 15.8897 17.3321 14.7665 19.2355 13.6316C19.2473 13.6434 19.2591 13.6316 19.271 13.6198Z" fill="#62688F"/>
<path d="M12.0236 8.91426V8.89061V8.81968V0.236427C12.0236 0.200959 12.0118 0.177314 12.0355 0.141846C14.4355 4.12608 16.8355 8.0985 19.2236 12.0827C19.2473 12.1182 19.2828 12.1655 19.2946 12.2128C19.1291 12.1537 18.9754 12.0709 18.8217 12C18.6325 11.9172 18.4315 11.8226 18.2424 11.7399C18.1241 11.6808 17.9941 11.6335 17.8759 11.5744C17.6749 11.4798 17.4739 11.397 17.2729 11.3024C17.1547 11.2551 17.0365 11.196 16.9182 11.1369L16.1379 10.7822C16.0079 10.7231 15.8778 10.664 15.736 10.6049L15.1685 10.3566C15.0502 10.3093 14.932 10.2502 14.8138 10.1911L14.0335 9.83643C13.9034 9.77731 13.7734 9.7182 13.6315 9.65909L13.064 9.41081C12.934 9.3517 12.8158 9.29259 12.6857 9.23347C12.4611 9.12707 12.2365 9.02066 12 8.92608C12.0355 8.91426 12.0236 8.91426 12.0236 8.91426Z" fill="#62688F"/>
</svg>
